<?xml version="1.0" encoding="utf-8" standalone="no"?>
<!DOCTYPE svg PUBLIC "-//W3C//DTD SVG 1.1//EN"
  "http://www.w3.org/Graphics/SVG/1.1/DTD/svg11.dtd">
<svg height="177.48pt" version="1.1" viewBox="0 0 524.394215 177.48" width="524.394215pt" xmlns="http://www.w3.org/2000/svg" xmlns:xlink="http://www.w3.org/1999/xlink">
 <metadata>
  <rdf:RDF xmlns:cc="http://creativecommons.org/ns#" xmlns:dc="http://purl.org/dc/elements/1.1/" xmlns:rdf="http://www.w3.org/1999/02/22-rdf-syntax-ns#">
   <cc:Work>
    <dc:type rdf:resource="http://purl.org/dc/dcmitype/StillImage"/>
    <dc:date>2022-04-29T16:58:30.146281</dc:date>
    <dc:format>image/svg+xml</dc:format>
    <dc:creator>
     <cc:Agent>
      <dc:title>Matplotlib v3.4.3, https://matplotlib.org/</dc:title>
     </cc:Agent>
    </dc:creator>
   </cc:Work>
  </rdf:RDF>
 </metadata>
 <defs>
  <style type="text/css">*{stroke-linecap:butt;stroke-linejoin:round;}</style>
 </defs>
 <g id="figure_1">
  <g id="patch_1">
   <path d="M 0 177.48 
L 524.394215 177.48 
L 524.394215 0 
L 0 0 
z
" style="fill:#f0ead2;"/>
  </g>
  <g id="axes_1">
   <g id="patch_2">
    <path d="M 7.2 170.28 
L 286.2 170.28 
L 286.2 7.2 
L 7.2 7.2 
z
" style="fill:#f0ead2;"/>
   </g>
   <g id="line2d_1">
    <path clip-path="url(#pf3873ab993)" d="M 22.281081 170.28 
L 22.281081 7.2 
" style="fill:none;stroke:#88211b;stroke-linecap:square;stroke-width:20;"/>
   </g>
   <g id="line2d_2">
    <path clip-path="url(#pf3873ab993)" d="M 67.524324 170.28 
L 67.524324 7.2 
" style="fill:none;stroke:#0c3576;stroke-linecap:square;stroke-width:40;"/>
   </g>
   <g id="text_1">
    <path d="M 115.333277 50.334531 
L 136.00984 50.334531 
L 136.00984 80.893906 
L 166.517652 80.893906 
L 166.517652 50.334531 
L 187.194215 50.334531 
L 187.194215 130.531406 
L 166.517652 130.531406 
L 166.517652 96.534531 
L 136.00984 96.534531 
L 136.00984 130.531406 
L 115.333277 130.531406 
L 115.333277 50.334531 
z
M 266.570386 100.298594 
L 266.570386 105.764219 
L 221.625074 105.764219 
Q 222.312574 112.536094 226.506324 115.922031 
Q 230.700074 119.307969 238.211011 119.307969 
Q 244.278199 119.307969 250.637574 117.503281 
Q 257.014136 115.698594 263.734449 112.054844 
L 263.734449 126.870469 
Q 256.911011 129.448594 250.087574 130.772031 
Q 243.264136 132.095469 236.440699 132.095469 
Q 220.112574 132.095469 211.054761 123.793906 
Q 202.014136 115.492344 202.014136 100.504844 
Q 202.014136 85.792344 210.900074 77.370469 
Q 219.786011 68.931406 235.375074 68.931406 
Q 249.554761 68.931406 258.062574 77.473594 
Q 266.570386 85.998594 266.570386 100.298594 
z
M 246.804761 93.904844 
Q 246.804761 88.422031 243.607886 85.070469 
Q 240.411011 81.701719 235.254761 81.701719 
Q 229.668824 81.701719 226.179761 84.847031 
Q 222.690699 87.992344 221.831324 93.904844 
L 246.804761 93.904844 
z
M 325.826441 86.754844 
Q 323.299879 85.568906 320.790504 85.018906 
Q 318.298316 84.451719 315.771754 84.451719 
Q 308.363941 84.451719 304.359254 89.212656 
Q 300.354566 93.956406 300.354566 102.807969 
L 300.354566 130.531406 
L 281.138941 130.531406 
L 281.138941 70.375156 
L 300.354566 70.375156 
L 300.354566 80.257969 
Q 304.067066 74.345469 308.862379 71.647031 
Q 313.674879 68.931406 320.395191 68.931406 
Q 321.357691 68.931406 322.474879 69.017344 
Q 323.609254 69.086094 325.757691 69.361094 
L 325.826441 86.754844 
z
M 367.390113 118.122031 
Q 373.560425 118.122031 376.808863 113.618906 
Q 380.074488 109.098594 380.074488 100.504844 
Q 380.074488 91.911094 376.808863 87.407969 
Q 373.560425 82.887656 367.390113 82.887656 
Q 361.2198 82.887656 357.902613 87.425156 
Q 354.602613 91.962656 354.602613 100.504844 
Q 354.602613 109.047031 357.902613 113.584531 
Q 361.2198 118.122031 367.390113 118.122031 
z
M 354.602613 79.175156 
Q 358.590113 73.915781 363.4198 71.423594 
Q 368.249488 68.931406 374.540113 68.931406 
Q 385.660425 68.931406 392.793238 77.765781 
Q 399.943238 86.600156 399.943238 100.504844 
Q 399.943238 114.409531 392.793238 123.261094 
Q 385.660425 132.095469 374.540113 132.095469 
Q 368.249488 132.095469 363.4198 129.603281 
Q 358.590113 127.093906 354.602613 121.834531 
L 354.602613 130.531406 
L 335.386988 130.531406 
L 335.386988 46.948594 
L 354.602613 46.948594 
L 354.602613 79.175156 
z
M 414.127222 70.375156 
L 433.342847 70.375156 
L 433.342847 130.531406 
L 414.127222 130.531406 
L 414.127222 70.375156 
z
M 414.127222 46.948594 
L 433.342847 46.948594 
L 433.342847 62.640781 
L 414.127222 62.640781 
L 414.127222 46.948594 
z
M 511.868238 100.298594 
L 511.868238 105.764219 
L 466.922925 105.764219 
Q 467.610425 112.536094 471.804175 115.922031 
Q 475.997925 119.307969 483.508863 119.307969 
Q 489.57605 119.307969 495.935425 117.503281 
Q 502.311988 115.698594 509.0323 112.054844 
L 509.0323 126.870469 
Q 502.208863 129.448594 495.385425 130.772031 
Q 488.561988 132.095469 481.73855 132.095469 
Q 465.410425 132.095469 456.352613 123.793906 
Q 447.311988 115.492344 447.311988 100.504844 
Q 447.311988 85.792344 456.197925 77.370469 
Q 465.083863 68.931406 480.672925 68.931406 
Q 494.852613 68.931406 503.360425 77.473594 
Q 511.868238 85.998594 511.868238 100.298594 
z
M 492.102613 93.904844 
Q 492.102613 88.422031 488.905738 85.070469 
Q 485.708863 81.701719 480.552613 81.701719 
Q 474.966675 81.701719 471.477613 84.847031 
Q 467.98855 87.992344 467.129175 93.904844 
L 492.102613 93.904844 
z
" style="fill:#ffffff;stroke:#000000;stroke-width:3;"/>
    <path d="M 115.333277 50.334531 
L 136.00984 50.334531 
L 136.00984 80.893906 
L 166.517652 80.893906 
L 166.517652 50.334531 
L 187.194215 50.334531 
L 187.194215 130.531406 
L 166.517652 130.531406 
L 166.517652 96.534531 
L 136.00984 96.534531 
L 136.00984 130.531406 
L 115.333277 130.531406 
L 115.333277 50.334531 
z
M 266.570386 100.298594 
L 266.570386 105.764219 
L 221.625074 105.764219 
Q 222.312574 112.536094 226.506324 115.922031 
Q 230.700074 119.307969 238.211011 119.307969 
Q 244.278199 119.307969 250.637574 117.503281 
Q 257.014136 115.698594 263.734449 112.054844 
L 263.734449 126.870469 
Q 256.911011 129.448594 250.087574 130.772031 
Q 243.264136 132.095469 236.440699 132.095469 
Q 220.112574 132.095469 211.054761 123.793906 
Q 202.014136 115.492344 202.014136 100.504844 
Q 202.014136 85.792344 210.900074 77.370469 
Q 219.786011 68.931406 235.375074 68.931406 
Q 249.554761 68.931406 258.062574 77.473594 
Q 266.570386 85.998594 266.570386 100.298594 
z
M 246.804761 93.904844 
Q 246.804761 88.422031 243.607886 85.070469 
Q 240.411011 81.701719 235.254761 81.701719 
Q 229.668824 81.701719 226.179761 84.847031 
Q 222.690699 87.992344 221.831324 93.904844 
L 246.804761 93.904844 
z
M 325.826441 86.754844 
Q 323.299879 85.568906 320.790504 85.018906 
Q 318.298316 84.451719 315.771754 84.451719 
Q 308.363941 84.451719 304.359254 89.212656 
Q 300.354566 93.956406 300.354566 102.807969 
L 300.354566 130.531406 
L 281.138941 130.531406 
L 281.138941 70.375156 
L 300.354566 70.375156 
L 300.354566 80.257969 
Q 304.067066 74.345469 308.862379 71.647031 
Q 313.674879 68.931406 320.395191 68.931406 
Q 321.357691 68.931406 322.474879 69.017344 
Q 323.609254 69.086094 325.757691 69.361094 
L 325.826441 86.754844 
z
M 367.390113 118.122031 
Q 373.560425 118.122031 376.808863 113.618906 
Q 380.074488 109.098594 380.074488 100.504844 
Q 380.074488 91.911094 376.808863 87.407969 
Q 373.560425 82.887656 367.390113 82.887656 
Q 361.2198 82.887656 357.902613 87.425156 
Q 354.602613 91.962656 354.602613 100.504844 
Q 354.602613 109.047031 357.902613 113.584531 
Q 361.2198 118.122031 367.390113 118.122031 
z
M 354.602613 79.175156 
Q 358.590113 73.915781 363.4198 71.423594 
Q 368.249488 68.931406 374.540113 68.931406 
Q 385.660425 68.931406 392.793238 77.765781 
Q 399.943238 86.600156 399.943238 100.504844 
Q 399.943238 114.409531 392.793238 123.261094 
Q 385.660425 132.095469 374.540113 132.095469 
Q 368.249488 132.095469 363.4198 129.603281 
Q 358.590113 127.093906 354.602613 121.834531 
L 354.602613 130.531406 
L 335.386988 130.531406 
L 335.386988 46.948594 
L 354.602613 46.948594 
L 354.602613 79.175156 
z
M 414.127222 70.375156 
L 433.342847 70.375156 
L 433.342847 130.531406 
L 414.127222 130.531406 
L 414.127222 70.375156 
z
M 414.127222 46.948594 
L 433.342847 46.948594 
L 433.342847 62.640781 
L 414.127222 62.640781 
L 414.127222 46.948594 
z
M 511.868238 100.298594 
L 511.868238 105.764219 
L 466.922925 105.764219 
Q 467.610425 112.536094 471.804175 115.922031 
Q 475.997925 119.307969 483.508863 119.307969 
Q 489.57605 119.307969 495.935425 117.503281 
Q 502.311988 115.698594 509.0323 112.054844 
L 509.0323 126.870469 
Q 502.208863 129.448594 495.385425 130.772031 
Q 488.561988 132.095469 481.73855 132.095469 
Q 465.410425 132.095469 456.352613 123.793906 
Q 447.311988 115.492344 447.311988 100.504844 
Q 447.311988 85.792344 456.197925 77.370469 
Q 465.083863 68.931406 480.672925 68.931406 
Q 494.852613 68.931406 503.360425 77.473594 
Q 511.868238 85.998594 511.868238 100.298594 
z
M 492.102613 93.904844 
Q 492.102613 88.422031 488.905738 85.070469 
Q 485.708863 81.701719 480.552613 81.701719 
Q 474.966675 81.701719 471.477613 84.847031 
Q 467.98855 87.992344 467.129175 93.904844 
L 492.102613 93.904844 
z
" style="fill:#ffffff;"/>
   </g>
  </g>
 </g>
 <defs>
  <clipPath id="pf3873ab993">
   <rect height="163.08" width="279" x="7.2" y="7.2"/>
  </clipPath>
 </defs>
</svg>
